<svg width="48" height="48" viewBox="0 0 48 48" fill="none" xmlns="http://www.w3.org/2000/svg">
  <path d="M24 8C18.48 8 14 12.48 14 18V22C14 24.5 13.2 26.8 11.8 28.6L10.4 30.4C9.8 31.2 10.2 32.4 11.2 32.4H36.8C37.8 32.4 38.2 31.2 37.6 30.4L36.2 28.6C34.8 26.8 34 24.5 34 22V18C34 12.48 29.52 8 24 8Z" fill="#000000" opacity="0.1"/>
  <path d="M24 8C18.48 8 14 12.48 14 18V22C14 24.5 13.2 26.8 11.8 28.6L10.4 30.4C9.8 31.2 10.2 32.4 11.2 32.4H36.8C37.8 32.4 38.2 31.2 37.6 30.4L36.2 28.6C34.8 26.8 34 24.5 34 22V18C34 12.48 29.52 8 24 8Z" stroke="#000000" stroke-width="2"/>
  <circle cx="24" cy="36" r="3" fill="#D97706"/>
  <path d="M20 36H28" stroke="#FFFFFF" stroke-width="1.5" stroke-linecap="round"/>
</svg>

